<?xml version="1.0" encoding="UTF-8" standalone="no"?>
<svg
   xmlns:dc="http://purl.org/dc/elements/1.1/"
   xmlns:cc="http://creativecommons.org/ns#"
   xmlns:rdf="http://www.w3.org/1999/02/22-rdf-syntax-ns#"
   xmlns:svg="http://www.w3.org/2000/svg"
   xmlns="http://www.w3.org/2000/svg"
   xmlns:sodipodi="http://sodipodi.sourceforge.net/DTD/sodipodi-0.dtd"
   xmlns:inkscape="http://www.inkscape.org/namespaces/inkscape"
   version="1.1"
   width="40"
   height="40"
   viewBox="0 0 40 40"
   enable-background="new 0 0 76.00 76.00"
   xml:space="preserve"
   id="svg2"
   inkscape:version="0.91 r13725"
   sodipodi:docname="appbar.eye.svg"><metadata
     id="metadata10"><rdf:RDF><cc:Work
         rdf:about=""><dc:format>image/svg+xml</dc:format><dc:type
           rdf:resource="http://purl.org/dc/dcmitype/StillImage" /><dc:title></dc:title></cc:Work></rdf:RDF></metadata><defs
     id="defs8" /><sodipodi:namedview
     pagecolor="#ffffff"
     bordercolor="#666666"
     borderopacity="1"
     objecttolerance="10"
     gridtolerance="10"
     guidetolerance="10"
     inkscape:pageopacity="0"
     inkscape:pageshadow="2"
     inkscape:window-width="1536"
     inkscape:window-height="801"
     id="namedview6"
     showgrid="false"
     inkscape:zoom="3.1052632"
     inkscape:cx="38"
     inkscape:cy="38"
     inkscape:window-x="-8"
     inkscape:window-y="-8"
     inkscape:window-maximized="1"
     inkscape:current-layer="svg2" /><path
     d="m 20,15.846114 c 2.294143,0 4.153886,1.859743 4.153886,4.153886 0,2.294143 -1.859743,4.1538 -4.153886,4.1538 -2.294143,0 -4.1538,-1.859657 -4.1538,-4.1538 0,-2.294143 1.859743,-4.153886 4.1538,-4.153886 z m 0,-6.923057 c 9.692314,0 18,6.923057 18,11.076943 0,4.1538 -8.307686,11.076943 -18,11.076943 C 10.307686,31.076943 2,24.1538 2,20 2,15.846114 10.307686,8.923057 20,8.923057 Z m 0,3.461572 c -4.205829,0 -7.615372,3.409543 -7.615372,7.615371 0,4.205829 3.409543,7.615372 7.615372,7.615372 4.205829,0 7.615372,-3.409543 7.615372,-7.615372 0,-4.205828 -3.409543,-7.615371 -7.615372,-7.615371 z"
     id="path4"
     inkscape:connector-curvature="0"
     style="fill:#ffffff;fill-opacity:1;stroke-width:0.2;stroke-linejoin:round" /></svg>